<svg width="38" height="39" viewBox="0 0 38 39" fill="none" xmlns="http://www.w3.org/2000/svg">
<rect y="0.712891" width="38" height="38" rx="19" fill="currentColor"/>
<path d="M25.4444 26.7129V25.1574C25.4444 24.3323 25.1167 23.5409 24.5332 22.9575C23.9498 22.374 23.1585 22.0463 22.3333 22.0463H16.1111C15.286 22.0463 14.4947 22.374 13.9112 22.9575C13.3278 23.5409 13 24.3323 13 25.1574V26.7129" stroke="white" stroke-width="2" stroke-linecap="round" stroke-linejoin="round"/>
<path d="M19.2224 18.9351C20.9407 18.9351 22.3336 17.5422 22.3336 15.824C22.3336 14.1058 20.9407 12.7129 19.2224 12.7129C17.5042 12.7129 16.1113 14.1058 16.1113 15.824C16.1113 17.5422 17.5042 18.9351 19.2224 18.9351Z" stroke="white" stroke-width="2" stroke-linecap="round" stroke-linejoin="round"/>
</svg>
